<svg width="12" height="12" viewBox="0 0 12 12" fill="none" xmlns="http://www.w3.org/2000/svg">
    <path d="M11.2153 10.0585C11.369 10.2121 11.4553 10.4206 11.4553 10.6379C11.4553 10.8552 11.369 11.0637 11.2153 11.2173C11.0616 11.371 10.8532 11.4573 10.6358 11.4573C10.4185 11.4573 10.2101 11.371 10.0564 11.2173L5.72833 6.8879L1.39889 11.216C1.24522 11.3696 1.03678 11.456 0.819452 11.456C0.60212 11.456 0.393689 11.3696 0.240012 11.216C0.086335 11.0623 2.28997e-09 10.8539 0 10.6365C-2.28997e-09 10.4192 0.086335 10.2108 0.240012 10.0571L4.56945 5.72901L0.241375 1.39957C0.0876981 1.2459 0.00136342 1.03747 0.00136342 0.820134C0.00136342 0.602802 0.0876981 0.394371 0.241375 0.240694C0.395052 0.0870166 0.603483 0.000681582 0.820815 0.00068158C1.03815 0.000681578 1.24658 0.0870166 1.40026 0.240694L5.72833 4.57013L10.0578 0.240012C10.2114 0.0863347 10.4199 -3.62076e-09 10.6372 0C10.8545 3.62076e-09 11.063 0.0863347 11.2167 0.240012C11.3703 0.393689 11.4567 0.60212 11.4567 0.819452C11.4567 1.03678 11.3703 1.24522 11.2167 1.39889L6.88721 5.72901L11.2153 10.0585Z" fill="#E40C23"/>
</svg>